<?xml version="1.0" encoding="iso-8859-1"?>
<!-- Generator: Adobe Illustrator 19.0.0, SVG Export Plug-In . SVG Version: 6.00 Build 0)  -->
<svg version="1.1" id="Capa_1" xmlns="http://www.w3.org/2000/svg" xmlns:xlink="http://www.w3.org/1999/xlink" x="0px" y="0px"
	 viewBox="0 0 512 512" style="enable-background:new 0 0 512 512;" xml:space="preserve">
<path style="fill:#E5D8C6;" d="M369.666,256.884L492.153,142.5c16.737-16.737-1.937-62.548-41.709-102.321
	s-76.1-48.963-92.837-32.225l-134.14,153.247c-17.921,20.474-37.187,39.731-57.668,57.643L17.726,348.341
	c-4.868,4.582-5.376,12.144-1.166,17.336l21.296,26.263l-13.682,12.815c-11.953,11.953,1.383,44.67,29.787,73.074
	c28.405,28.405,61.121,41.741,73.074,29.788l121.076-129.27C267.995,357.117,348.407,276.736,369.666,256.884z"/>
<path style="fill:#F3E8D6;" d="M389.291,39.638L274.907,162.126c-19.852,21.258-100.234,101.67-121.463,121.554L24.174,404.755
	c-11.953,11.953,1.383,44.67,29.787,73.074c28.405,28.405,61.121,41.741,73.074,29.788l121.076-129.27
	c19.883-21.229,100.295-101.611,121.554-121.463L492.153,142.5L389.291,39.638z"/>
<path style="fill:#E5D8C6;" d="M369.666,256.884L492.153,142.5l-33.156-33.156L336.51,223.728
	c-21.259,19.852-101.67,100.234-121.554,121.463L93.88,474.461c-9.511,9.511-32.17,2.998-55.341-14.366
	c4.458,5.949,9.619,11.931,15.422,17.734c28.405,28.404,61.121,41.741,73.074,29.788l121.076-129.27
	C267.995,357.118,348.407,276.736,369.666,256.884z"/>
<ellipse transform="matrix(0.7071 -0.7071 0.7071 0.7071 64.6879 338.3077)" style="fill:#CCBAA3;" cx="440.717" cy="91.069" rx="30.608" ry="72.729"/>
<path style="fill:#BFA68C;" d="M462.366,69.426c-5.765-5.765-11.707-10.896-17.617-15.334c17.429,23.212,23.98,45.93,14.453,55.457
	s-32.246,2.976-55.457-14.453c4.438,5.91,9.57,11.852,15.334,17.617c28.404,28.404,61.121,41.741,73.074,29.788
	C504.106,130.547,490.77,97.83,462.366,69.426z"/>
<path style="fill:#FF4C4C;" d="M154.406,228.807c0,0,9.784,20.241,53.218,63.675c38.276,38.276,68.006,57.549,68.006,57.549
	c16.837-7.846,42.006-33.016,51.01-51.128c0,0-37.697-27.726-67.704-57.734c-32.248-32.248-51.946-61.917-51.946-61.917
	C199.856,183.131,181.76,193.542,154.406,228.807z"/>
<path style="fill:#EA2828;" d="M326.64,298.904c0,0-16.453-12.102-36.272-28.967c-10.09,18.411-33.91,42.335-51.317,51.729
	c21.942,18.87,36.579,28.366,36.579,28.366C292.467,342.185,317.637,317.016,326.64,298.904z"/>
<path style="fill:#FF4C4C;" d="M136.142,327.526l10.586-25.742c0.303-0.737,0.116-1.584-0.468-2.125l-20.423-18.909
	c-1.13-1.046-0.618-2.931,0.885-3.262l102.908-22.674l11.595,52.626l-102.908,22.673
	C136.813,330.446,135.557,328.951,136.142,327.526z"/>
<path style="fill:#EA2828;" d="M177.415,368.799l25.742-10.586c0.737-0.303,1.584-0.116,2.125,0.468l18.909,20.423
	c1.046,1.13,2.931,0.618,3.262-0.885l22.674-102.908l-52.626-11.595l-22.674,102.908
	C174.496,368.129,175.991,369.385,177.415,368.799z"/>
<circle style="fill:#FFB125;" cx="236" cy="268.94" r="53.913"/>
<path style="fill:#FF901D;" d="M274.121,230.821c-5.807-5.807-12.611-10.003-19.858-12.607c6.838,19.032,2.641,41.139-12.607,56.387
	c-15.248,15.248-37.354,19.444-56.387,12.607c2.604,7.248,6.8,14.052,12.607,19.858c21.054,21.054,55.191,21.054,76.245,0
	C295.175,286.011,295.175,251.875,274.121,230.821z"/>
<circle style="fill:#FED130;" cx="236" cy="268.94" r="27.904"/>
<g>
</g>
<g>
</g>
<g>
</g>
<g>
</g>
<g>
</g>
<g>
</g>
<g>
</g>
<g>
</g>
<g>
</g>
<g>
</g>
<g>
</g>
<g>
</g>
<g>
</g>
<g>
</g>
<g>
</g>
</svg>
